<?xml version="1.0" standalone="no"?><!DOCTYPE svg PUBLIC "-//W3C//DTD SVG 1.1//EN" "http://www.w3.org/Graphics/SVG/1.1/DTD/svg11.dtd"><svg t="1723622256733" class="icon" viewBox="0 0 1024 1024" version="1.1" xmlns="http://www.w3.org/2000/svg" p-id="10541" xmlns:xlink="http://www.w3.org/1999/xlink" width="200" height="200"><path d="M927.47776 0H96.51712C43.1872 0 0 43.1872 0 96.51712V927.488c-0.01536 25.6 10.14784 50.16064 28.2624 68.25472a96.40448 96.40448 0 0 0 68.25984 28.2624h830.96064c53.33504 0 96.52224-43.33056 96.52224-96.51712V96.51712C1024 43.1872 980.66944 0 927.47776 0z m32.5632 937.20576a22.79936 22.79936 0 0 1-6.67136 16.16384 22.8096 22.8096 0 0 1-16.16896 6.67136H86.79936a22.85056 22.85056 0 0 1-22.84032-22.8352V86.79936a22.84544 22.84544 0 0 1 22.84032-22.8352h850.40128a22.784 22.784 0 0 1 22.84032 22.8352v850.4064z" p-id="10542"></path><path d="M755.82976 481.28H542.72V268.16512a30.72 30.72 0 0 0-61.44 0V481.28H268.17024a30.72 30.72 0 0 0 0 61.44H481.28v213.10976a30.72 30.72 0 0 0 61.44 0V542.72h213.10976a30.72 30.72 0 0 0 0-61.44z" p-id="10543"></path></svg>